<svg width="18" height="21" viewBox="0 0 18 21" fill="none" xmlns="http://www.w3.org/2000/svg">
<path d="M17.3037 16.2119C17.0037 16.9111 16.6331 17.578 16.1976 18.2019C15.6159 19.0329 15.1381 19.607 14.7719 19.9266C14.2032 20.4488 13.5922 20.7174 12.9389 20.7326C12.4709 20.7326 11.9054 20.5994 11.2468 20.3285C10.5859 20.0588 9.97928 19.9266 9.42353 19.9266C8.84178 19.9266 8.21778 20.0588 7.54937 20.3285C6.88203 20.5994 6.34253 20.7413 5.92978 20.7543C5.3047 20.7814 4.67962 20.5062 4.0567 19.9266C3.65912 19.5799 3.16187 18.9841 2.56495 18.1413C1.92578 17.2432 1.40037 16.1978 0.988699 15.0094C0.547782 13.7234 0.326782 12.4798 0.326782 11.2751C0.326782 9.89603 0.624699 8.70544 1.22162 7.70878C1.67309 6.92603 2.31854 6.27275 3.09578 5.81186C3.8622 5.35217 4.73713 5.10465 5.63078 5.09469C6.12912 5.09469 6.78236 5.24853 7.59161 5.55186C8.40086 5.85519 8.92087 6.00903 9.14728 6.00903C9.31845 6.00903 9.8937 5.82811 10.873 5.46953C11.7971 5.13694 12.5771 4.99936 13.2163 5.05353C14.9496 5.19328 16.2507 5.87578 17.1163 7.10644C15.5671 8.04569 14.8012 9.35978 14.8164 11.0465C14.8294 12.3606 15.3071 13.4537 16.2431 14.3214C16.6569 14.7174 17.1397 15.0343 17.6677 15.2564C17.5529 15.5889 17.4315 15.9064 17.3037 16.2119ZM13.3311 0.578277C13.3311 1.60744 12.9541 2.56944 12.2055 3.45886C11.2999 4.51619 10.2057 5.12828 9.01945 5.03186C9.00393 4.90244 8.99634 4.7722 8.9967 4.64186C8.9967 3.65278 9.4257 2.59544 10.1916 1.72986C10.5729 1.29219 11.0583 0.927111 11.6465 0.636777C12.2337 0.350777 12.7884 0.192611 13.3105 0.165527C13.3246 0.304194 13.3311 0.441777 13.3311 0.578277Z" fill="black"/>
</svg>
