<svg width="20" height="20" viewBox="0 0 20 20" fill="none" xmlns="http://www.w3.org/2000/svg">
<path fill-rule="evenodd" clip-rule="evenodd" d="M5.04607 2.3C5.18771 2.11115 5.41 2 5.64607 2H14.3467C14.5828 2 14.8051 2.11115 14.9467 2.3L17.1219 5.20022C17.2193 5.33005 17.2719 5.48795 17.2719 5.65022V15.801C17.2719 16.3845 17.0401 16.9441 16.6275 17.3567C16.2149 17.7693 15.6553 18.0011 15.0718 18.0011H4.92101C4.3375 18.0011 3.7779 17.7693 3.36529 17.3567C2.95269 16.9441 2.7209 16.3845 2.7209 15.801V5.67887C2.72052 5.66917 2.72034 5.65941 2.72034 5.64962C2.72034 5.46806 2.78485 5.30157 2.8922 5.17183L5.04607 2.3ZM4.2209 15.801V6.39962H15.7719V15.801C15.7719 15.9867 15.6981 16.1648 15.5668 16.2961C15.4355 16.4274 15.2575 16.5011 15.0718 16.5011H4.92101C4.73533 16.5011 4.55725 16.4274 4.42596 16.2961C4.29466 16.1648 4.2209 15.9867 4.2209 15.801ZM13.9717 3.5L15.0214 4.89962H4.97135L6.02107 3.5H13.9717ZM7.84562 8.55004C7.84562 8.13582 7.50983 7.80004 7.09562 7.80004C6.6814 7.80004 6.34562 8.13582 6.34562 8.55004C6.34562 9.51814 6.73019 10.4466 7.41474 11.1311C8.09929 11.8157 9.02774 12.2003 9.99584 12.2003C10.9639 12.2003 11.8924 11.8157 12.5769 11.1311C13.2615 10.4466 13.6461 9.51814 13.6461 8.55004C13.6461 8.13582 13.3103 7.80004 12.8961 7.80004C12.4819 7.80004 12.1461 8.13582 12.1461 8.55004C12.1461 9.12031 11.9195 9.66723 11.5163 10.0705C11.113 10.4737 10.5661 10.7003 9.99584 10.7003C9.42557 10.7003 8.87865 10.4737 8.4754 10.0705C8.07216 9.66723 7.84562 9.12031 7.84562 8.55004Z" fill="#3F434A"/>
</svg>
