<svg width="10" height="16" viewBox="0 0 10 16" fill="none" xmlns="http://www.w3.org/2000/svg">
<path fill-rule="evenodd" clip-rule="evenodd" d="M5.75458 0.75C5.75458 0.335786 5.41879 0 5.00458 0C4.59036 0 4.25458 0.335786 4.25458 0.75V2.63635H3.35687C2.54615 2.63635 1.76863 2.95841 1.19537 3.53167C0.622106 4.10494 0.300049 4.88245 0.300049 5.69317C0.300049 6.50389 0.622106 7.2814 1.19537 7.85467C1.76863 8.42793 2.54615 8.74999 3.35687 8.74999H4.25458V11.8636H1.05005C0.635835 11.8636 0.300049 12.1994 0.300049 12.6136C0.300049 13.0278 0.635835 13.3636 1.05005 13.3636H4.25458V15.25C4.25458 15.6642 4.59036 16 5.00458 16C5.41879 16 5.75458 15.6642 5.75458 15.25V13.3636H6.65232C7.46304 13.3636 8.24055 13.0416 8.81382 12.4683C9.38708 11.895 9.70914 11.1175 9.70914 10.3068C9.70914 9.49609 9.38708 8.71858 8.81382 8.14531C8.24055 7.57205 7.46304 7.24999 6.65232 7.24999H5.75458V4.13635H8.30005C8.71426 4.13635 9.05005 3.80057 9.05005 3.38635C9.05005 2.97214 8.71426 2.63635 8.30005 2.63635H5.75458V0.75ZM4.25458 4.13635H3.35687C2.94397 4.13635 2.54799 4.30037 2.25603 4.59233C1.96407 4.88429 1.80005 5.28028 1.80005 5.69317C1.80005 6.10606 1.96407 6.50205 2.25603 6.79401C2.54799 7.08597 2.94397 7.24999 3.35687 7.24999H4.25458V4.13635ZM5.75458 8.74999V11.8636H6.65232C7.06522 11.8636 7.4612 11.6996 7.75316 11.4076C8.04512 11.1157 8.20914 10.7197 8.20914 10.3068C8.20914 9.89391 8.04512 9.49793 7.75316 9.20597C7.4612 8.91401 7.06522 8.74999 6.65232 8.74999H5.75458Z" fill="#3F434A"/>
</svg>
