<svg width="182" height="164" viewBox="0 0 182 164" fill="none" xmlns="http://www.w3.org/2000/svg">
<rect x="16.9149" y="35" width="128.085" height="128.085" rx="7.31915" fill="#89C239"/>
<path fill-rule="evenodd" clip-rule="evenodd" d="M84.617 90.2781C89.9078 88.7035 93.7659 83.8023 93.7659 78C93.7659 70.9261 88.0314 65.1915 80.9574 65.1915C73.8835 65.1915 68.1489 70.9261 68.1489 78C68.1489 83.8023 72.0071 88.7035 77.2979 90.2781V106.362C77.2979 108.383 78.9363 110.021 80.9574 110.021C82.9786 110.021 84.617 108.383 84.617 106.362V90.2781Z" fill="white"/>
<rect x="34.2979" y="117.34" width="93.3191" height="31.1064" rx="3.65957" fill="white"/>
<rect x="55.7555" y="124.66" width="2.82931" height="16.4681" rx="1.41465" fill="#B4B4B4"/>
<rect width="2.76898" height="16.8332" rx="1.38449" transform="matrix(0.544548 0.83873 -0.853327 0.521377 63.3003 127.404)" fill="#B4B4B4"/>
<rect width="2.76898" height="16.8332" rx="1.38449" transform="matrix(-0.544548 0.83873 0.853327 0.521377 51.0399 127.404)" fill="#B4B4B4"/>
<rect x="79.5427" y="124.66" width="2.82931" height="16.4681" rx="1.41465" fill="#B4B4B4"/>
<rect width="2.76898" height="16.8332" rx="1.38449" transform="matrix(0.544548 0.83873 -0.853327 0.521377 87.0875 127.404)" fill="#B4B4B4"/>
<rect width="2.76898" height="16.8332" rx="1.38449" transform="matrix(-0.544548 0.83873 0.853327 0.521377 74.8271 127.404)" fill="#B4B4B4"/>
<rect x="103.33" y="124.66" width="2.82931" height="16.4681" rx="1.41465" fill="#B4B4B4"/>
<rect width="2.76898" height="16.8332" rx="1.38449" transform="matrix(0.544548 0.83873 -0.853327 0.521377 110.875 127.404)" fill="#B4B4B4"/>
<rect width="2.76898" height="16.8332" rx="1.38449" transform="matrix(-0.544548 0.83873 0.853327 0.521377 98.6144 127.404)" fill="#B4B4B4"/>
<rect x="1.36167" y="67.9361" width="38.4255" height="38.4255" rx="2.74468" fill="#075A00" stroke="white" stroke-width="1.82979"/>
<circle cx="20.5744" cy="80.7447" r="5.48936" fill="white"/>
<path d="M12.3405 98.1277C12.3405 93.5802 16.027 89.8937 20.5745 89.8937C25.122 89.8937 28.8085 93.5802 28.8085 98.1277V99.0426H12.3405V98.1277Z" fill="white"/>
<path d="M142.866 14.5979C144.36 13.1039 146.911 13.7874 147.458 15.8283L160.172 63.2783C160.719 65.3192 158.851 67.1867 156.81 66.6399L109.36 53.9257C107.319 53.3788 106.636 50.8277 108.13 49.3337L142.866 14.5979Z" fill="#FFF732" stroke="white" stroke-width="1.82979"/>
<rect x="139.141" y="23.5449" width="7.31915" height="24.7021" rx="3.65957" transform="rotate(15 139.141 23.5449)" fill="white"/>
<circle cx="134.861" cy="53.6549" r="3.65957" transform="rotate(15 134.861 53.6549)" fill="white"/>
</svg>
