<svg width="19" height="20" viewBox="0 0 19 20" fill="none" xmlns="http://www.w3.org/2000/svg">
<path d="M6.63513 18.773V15.7159C6.63513 14.9349 7.27214 14.3019 8.05816 14.3019H10.9332C11.3102 14.3019 11.6722 14.4509 11.9392 14.7159C12.2062 14.9809 12.3562 15.3409 12.3562 15.7159V18.773C12.3542 19.098 12.4822 19.41 12.7122 19.64C12.9432 19.87 13.2562 20 13.5832 20H15.5443C16.4603 20.002 17.3393 19.643 17.9873 19.001C18.6363 18.359 19.0003 17.487 19.0003 16.5779V7.86678C19.0003 7.13177 18.6723 6.43575 18.1053 5.96474L11.4342 0.675642C10.2742 -0.251374 8.61114 -0.221375 7.48512 0.746643L0.967028 5.96474C0.373017 6.42175 0.0180003 7.12077 0 7.86678V16.5689C0 18.464 1.54702 20 3.45605 20H5.3721C6.05112 20 6.60312 19.456 6.60812 18.782L6.63513 18.773Z" fill="#25282B"/>
</svg>
