<svg width="16" height="16" viewBox="0 0 16 16" fill="none" xmlns="http://www.w3.org/2000/svg">
<path fill-rule="evenodd" clip-rule="evenodd" d="M3.0457 0.3C3.18734 0.111146 3.40963 0 3.6457 0H12.3464C12.5824 0 12.8047 0.111146 12.9464 0.3L15.1215 3.20022C15.2189 3.33005 15.2715 3.48795 15.2715 3.65022V13.801C15.2715 14.3845 15.0397 14.9441 14.6271 15.3567C14.2145 15.7693 13.6549 16.0011 13.0714 16.0011H2.92064C2.33714 16.0011 1.77753 15.7693 1.36493 15.3567C0.952328 14.9441 0.720531 14.3845 0.720531 13.801V3.67887C0.720159 3.66917 0.719971 3.65941 0.719971 3.64962C0.719971 3.46806 0.784481 3.30157 0.89183 3.17183L3.0457 0.3ZM2.22053 13.801V4.39962H13.7715V13.801C13.7715 13.9867 13.6978 14.1648 13.5665 14.2961C13.4352 14.4274 13.2571 14.5011 13.0714 14.5011H2.92064C2.73496 14.5011 2.55689 14.4274 2.42559 14.2961C2.29429 14.1648 2.22053 13.9867 2.22053 13.801ZM11.9714 1.5L13.0211 2.89962H2.97099L4.0207 1.5H11.9714ZM5.84525 6.55004C5.84525 6.13582 5.50947 5.80004 5.09525 5.80004C4.68104 5.80004 4.34525 6.13582 4.34525 6.55004C4.34525 7.51814 4.72983 8.44658 5.41438 9.13113C6.09893 9.81568 7.02738 10.2003 7.99548 10.2003C8.96358 10.2003 9.89202 9.81568 10.5766 9.13113C11.2611 8.44658 11.6457 7.51814 11.6457 6.55004C11.6457 6.13582 11.3099 5.80004 10.8957 5.80004C10.4815 5.80004 10.1457 6.13582 10.1457 6.55004C10.1457 7.12031 9.91916 7.66723 9.51591 8.07047C9.11267 8.47372 8.56575 8.70026 7.99548 8.70026C7.4252 8.70026 6.87828 8.47372 6.47504 8.07047C6.07179 7.66723 5.84525 7.12031 5.84525 6.55004Z" fill="#3F434A"/>
</svg>
