<svg width="20" height="20" viewBox="0 0 20 20" fill="none" xmlns="http://www.w3.org/2000/svg">
<path fill-rule="evenodd" clip-rule="evenodd" d="M7.87498 4.16708V3.5H12.1257V4.90048H7.87498V4.23343C7.87546 4.22243 7.8757 4.21137 7.8757 4.20026C7.8757 4.18914 7.87546 4.17808 7.87498 4.16708ZM6.37519 3.45026H5.68803C5.10571 3.45026 4.54857 3.68367 4.13882 4.097C3.72928 4.51012 3.50037 5.06905 3.50037 5.65049V15.8022C3.50037 16.3836 3.72928 16.9425 4.13882 17.3557C4.54857 17.769 5.10571 18.0024 5.68803 18.0024H14.314C14.8964 18.0024 15.4535 17.769 15.8633 17.3557C16.2728 16.9425 16.5017 16.3836 16.5017 15.8022V5.65049C16.5017 5.06905 16.2728 4.51012 15.8633 4.097C15.4535 3.68367 14.8964 3.45026 14.314 3.45026H13.6254C13.6123 2.65298 12.9658 2 12.1568 2H7.84382C7.03485 2 6.38838 2.65298 6.37519 3.45026ZM13.6254 4.95026C13.6122 5.74751 12.9658 6.40048 12.1568 6.40048H7.84382C7.03486 6.40048 6.3884 5.74751 6.37519 4.95026H5.68803C5.50777 4.95026 5.33356 5.02243 5.20408 5.15304C5.07439 5.28387 5.00037 5.46268 5.00037 5.65049V15.8022C5.00037 15.99 5.07439 16.1688 5.20408 16.2996C5.33356 16.4302 5.50777 16.5024 5.68803 16.5024H14.314C14.4943 16.5024 14.6685 16.4302 14.798 16.2996C14.9277 16.1688 15.0017 15.99 15.0017 15.8022V5.65049C15.0017 5.46268 14.9277 5.28387 14.798 5.15304C14.6685 5.02243 14.4943 4.95026 14.314 4.95026H13.6254Z" fill="#3F434A"/>
</svg>
